<?xml version="1.0" standalone="no"?><!DOCTYPE svg PUBLIC "-//W3C//DTD SVG 1.1//EN" "http://www.w3.org/Graphics/SVG/1.1/DTD/svg11.dtd"><svg t="1567496886397" class="icon" viewBox="0 0 1024 1024" version="1.1" xmlns="http://www.w3.org/2000/svg" p-id="1909" xmlns:xlink="http://www.w3.org/1999/xlink" width="16" height="16"><defs><style type="text/css"></style></defs><path d="M510.414861 41.213622c-208.354939 0-377.263158 169.284425-377.263158 378.104339C133.151703 628.146328 510.414861 1001.80805 510.414861 1001.80805S887.678019 628.146328 887.678019 419.317961c0-208.819913-168.908219-378.104338-377.263158-378.104339z m0 621.374613C375.593478 662.588235 266.303406 553.298163 266.303406 418.47678s109.290072-244.111455 244.111455-244.111455S754.526316 283.655397 754.526316 418.47678s-109.290072 244.111455-244.111455 244.111455z" fill="#10ACAE" p-id="1910"></path><path d="M427.023851 409.735265l-11.911793-19.355608 32.759546-16.379773 4.467979 17.871918 17.871918-5.955897-4.46798-14.891855 34.991422-5.955897v16.379773l17.127959 1.487917 2.975835-19.359835 34.25169 5.955897-5.955897 14.891856 16.379773 7.448041 5.955897-16.379773 32.759546 13.399711-11.172062 20.847752 14.147897 5.955897s26.309086-40.697924 26.803649-41.691278c-131.782142-85.868054-247.184512 0-247.184512 0L412.136223 418.666997l14.887628-8.931732z m84.883154 126.570205c27.488429-3.41122 33.211839-23.045812 34.260145-35.735381 0.211352-7.448041-3.157598-23.265618-19.372516-31.271629 1.492144 0.494563-8.931732-61.051112-8.931732-61.051112h-15.635814s-8.931732 60.556549-8.192 61.051112c-21.097148 6.953478-19.359835 31.267401-19.359835 31.267402s-2.481271 31.271628 37.231752 35.739608z m-0.765094-52.089792a15.614679 15.614679 0 1 1 0.004227 31.233585 15.614679 15.614679 0 0 1-0.004227-31.233585z m28.388789-15.81335c11.615901 10.27593 14.30007 24.351967 14.088718 31.719695-1.293474 15.496322-8.323038 39.463628-42.092846 43.631488-48.775794-5.457106-45.728099-43.635715-45.728099-43.635715s-1.394923-19.490873 11.861069-31.402667l-114.662638 0.583331s22.585065 99.271992 139.230184 111.682576c137.488644-10.91844 154.117812-113.170493 154.117812-113.170493l-116.8142 0.591785zM510.414861 225.089783c-108.554568 0-196.557276 88.002708-196.557276 196.557276s88.002708 196.557276 196.557276 196.557275c108.558795 0 196.557276-88.002708 196.557275-196.557275s-87.998481-196.557276-196.557275-196.557276z m0.72705 384.161684c-104.014729 0-188.331459-84.316731-188.331459-188.331459 0-104.014729 84.316731-188.335686 188.331459-188.335686s188.331459 84.316731 188.331459 188.335686c0.004227 104.014729-84.316731 188.331459-188.331459 188.331459z" fill="#10ACAE" p-id="1911"></path></svg>