<?xml version="1.0" standalone="no"?><!DOCTYPE svg PUBLIC "-//W3C//DTD SVG 1.1//EN" "http://www.w3.org/Graphics/SVG/1.1/DTD/svg11.dtd"><svg t="1569564896495" class="icon" viewBox="0 0 1024 1024" version="1.1" xmlns="http://www.w3.org/2000/svg" p-id="5048" xmlns:xlink="http://www.w3.org/1999/xlink" width="16" height="16"><defs><style type="text/css"></style></defs><path d="M924.78 339.61A449.35 449.35 0 1 0 960 514a446.24 446.24 0 0 0-35.22-174.39z m-129.1 438.83c-42.67-39-94.24-68.16-150.68-86a236.67 236.67 0 0 0 33.21-27.63 233.65 233.65 0 1 0-330.42 0A235.17 235.17 0 0 0 381 692.45c-56.91 18-108.91 47.58-151.78 87A386.61 386.61 0 0 1 124 514c0-213.94 174.06-388 388-388s388 174.06 388 388a386.56 386.56 0 0 1-104.32 264.44z" fill="#0368CD" p-id="5049"></path></svg>